<svg viewBox="0 0 18 18" width="1em" height="1em" fill="currentColor" aria-hidden="true" xmlns="http://www.w3.org/2000/svg">
<path d="M9.88379 0.928471C10.2743 0.538277 10.9074 0.538057 11.2979 0.928471L17.6611 7.29273C18.0517 7.68325 18.0517 8.31627 17.6611 8.70679L11.2979 15.071C10.9074 15.4615 10.2743 15.4612 9.88379 15.071C9.49326 14.6805 9.49326 14.0475 9.88379 13.657L14.54 8.99976L0.999999 8.99976C0.447714 8.99976 -6.90093e-07 8.55204 -6.41949e-07 7.99976C-5.93804e-07 7.44747 0.447715 6.99976 0.999999 6.99976L14.54 6.99976L9.88379 2.34253C9.49327 1.95201 9.49327 1.319 9.88379 0.928471Z" fill="currentColor"/>
</svg>


