<svg width="1em" height="1em" viewBox="0 0 26 26" fill="none" xmlns="http://www.w3.org/2000/svg">
<path d="M20.333 24H1.99967V5.66667H13.0163L14.683 4H1.99967C1.55765 4 1.13372 4.17559 0.821163 4.48816C0.508602 4.80072 0.333008 5.22464 0.333008 5.66667V24C0.333008 24.442 0.508602 24.866 0.821163 25.1785C1.13372 25.4911 1.55765 25.6667 1.99967 25.6667H20.333C20.775 25.6667 21.199 25.4911 21.5115 25.1785C21.8241 24.866 21.9997 24.442 21.9997 24V11.5L20.333 13.1667V24Z" fill="currentColor"/>
<path d="M24.9415 3.86666L22.1332 1.05833C22.0086 0.933353 21.8605 0.834198 21.6975 0.766543C21.5345 0.698888 21.3597 0.664062 21.1832 0.664062C21.0067 0.664063 20.832 0.698888 20.6689 0.766543C20.5059 0.834198 20.3578 0.933353 20.2332 1.05833L8.80822 12.55L7.88322 16.5583C7.84381 16.7526 7.84795 16.9532 7.89535 17.1458C7.94274 17.3383 8.03221 17.5179 8.15732 17.6717C8.28243 17.8255 8.44007 17.9496 8.61889 18.0352C8.79772 18.1208 8.9933 18.1657 9.19155 18.1667C9.29402 18.1779 9.39742 18.1779 9.49988 18.1667L13.5416 17.275L24.9415 5.76666C25.0665 5.64203 25.1657 5.49396 25.2333 5.33094C25.301 5.16793 25.3358 4.99316 25.3358 4.81666C25.3358 4.64016 25.301 4.4654 25.2333 4.30238C25.1657 4.13936 25.0665 3.99129 24.9415 3.86666ZM12.6749 15.7333L9.62488 16.4083L10.3332 13.3833L18.9332 4.725L21.2832 7.075L12.6749 15.7333ZM22.2249 6.13333L19.8749 3.78333L21.1665 2.46666L23.5332 4.83333L22.2249 6.13333Z" fill="currentColor"/>
</svg>
