<svg width="1em" height="1em" viewBox="0 0 17 13" fill="none" xmlns="http://www.w3.org/2000/svg">
<path d="M17 9.19989V10.1999H0V9.19989H17Z" fill="currentColor"/>
<path d="M0 3.26629L8.74228e-08 2.26629L17 2.2663L17 3.2663L0 3.26629Z" fill="currentColor"/>
<path d="M7.93327 9.63283C7.93327 11.1976 6.66474 12.4662 5.09993 12.4662C3.53513 12.4662 2.2666 11.1976 2.2666 9.63283C2.2666 8.06803 3.53513 6.7995 5.09993 6.7995C6.66474 6.7995 7.93327 8.06803 7.93327 9.63283Z" fill="white"/>
<path d="M6.93359 9.63251C6.93342 8.62013 6.11202 7.7995 5.09961 7.7995C4.08735 7.79968 3.26678 8.62024 3.2666 9.63251C3.2666 10.6449 4.08724 11.4663 5.09961 11.4665V12.4665L4.81055 12.4518C3.38166 12.3069 2.2666 11.0996 2.2666 9.63251C2.26678 8.06796 3.53506 6.79968 5.09961 6.7995C6.66431 6.7995 7.93342 8.06785 7.93359 9.63251L7.91895 9.92255C7.77385 11.3513 6.56662 12.4665 5.09961 12.4665V11.4665C6.11213 11.4665 6.93359 10.645 6.93359 9.63251Z" fill="currentColor"/>
<path d="M9.06673 2.83335C9.06673 1.26855 10.3353 2.01195e-05 11.9001 2.02563e-05C13.4649 2.03931e-05 14.7334 1.26855 14.7334 2.83335C14.7334 4.39816 13.4649 5.66669 11.9001 5.66669C10.3353 5.66669 9.06673 4.39816 9.06673 2.83335Z" fill="white"/>
<path d="M10.0664 2.83368C10.0666 3.84605 10.888 4.66669 11.9004 4.66669C12.9127 4.66651 13.7332 3.84594 13.7334 2.83368C13.7334 1.82127 12.9128 0.99987 11.9004 0.999695L11.9004 -0.000305423L12.1895 0.014343C13.6183 0.159285 14.7334 1.36656 14.7334 2.83368C14.7332 4.39823 13.4649 5.66651 11.9004 5.66669C10.3357 5.66669 9.06658 4.39834 9.06641 2.83368L9.08105 2.54364C9.22615 1.11491 10.4334 -0.000305552 11.9004 -0.000305423L11.9004 0.999695C10.8879 0.999694 10.0664 1.82116 10.0664 2.83368Z" fill="currentColor"/>
</svg>
