<svg width="1em" height="1em" viewBox="0 0 43 45" fill="none" xmlns="http://www.w3.org/2000/svg">
<path d="M21.917 0.955115C19.1464 0.949826 16.4021 1.51619 13.8417 2.62168C11.2812 3.72718 8.95503 5.35003 6.99672 7.39705C-1.22984 15.9892 -1.22984 29.9659 6.99953 38.5581C15.2261 47.1473 28.608 47.1473 36.8345 38.5581C45.0583 29.9659 45.0583 15.9892 36.8345 7.39705C34.8774 5.35007 32.5522 3.7272 29.9926 2.62168C27.4331 1.51617 24.6896 0.949796 21.9198 0.955115H21.917ZM21.917 3.87499C26.5914 3.87499 31.2658 5.7403 34.8433 9.47387C36.5435 11.2458 37.8925 13.3506 38.8129 15.6677C39.7333 17.9849 40.207 20.4689 40.207 22.9776C40.207 25.4862 39.7333 27.9702 38.8129 30.2874C37.8925 32.6045 36.5435 34.7093 34.8433 36.4812C33.1468 38.2571 31.1315 39.666 28.913 40.6273C26.6944 41.5886 24.3161 42.0834 21.9142 42.0834C19.5123 42.0834 17.134 41.5886 14.9155 40.6273C12.6969 39.666 10.6817 38.2571 8.98516 36.4812C7.28489 34.7093 5.93596 32.6045 5.01557 30.2874C4.09519 27.9702 3.62143 25.4862 3.62143 22.9776C3.62143 20.4689 4.09519 17.9849 5.01557 15.6677C5.93596 13.3506 7.28489 11.2458 8.98516 9.47387C10.6812 7.69671 12.6967 6.28719 14.9161 5.32634C17.1354 4.36548 19.5146 3.87225 21.917 3.87499V3.87499ZM30.242 17.0996C29.9757 17.1258 29.722 17.2307 29.5108 17.4022L19.2339 25.4509L14.4723 20.4807C14.3426 20.3404 14.1874 20.2285 14.0159 20.1515C13.8443 20.0746 13.6598 20.034 13.4731 20.0323C13.2863 20.0306 13.1012 20.0678 12.9283 20.1417C12.7555 20.2155 12.5985 20.3246 12.4665 20.4625C12.3344 20.6004 12.23 20.7644 12.1593 20.9449C12.0886 21.1254 12.053 21.3188 12.0546 21.5138C12.0563 21.7088 12.0951 21.9016 12.1688 22.0807C12.2425 22.2599 12.3496 22.422 12.4839 22.5575L18.1089 28.4325C18.348 28.6823 18.6652 28.8338 19.0025 28.8591C19.3398 28.8845 19.6746 28.782 19.9455 28.5706L31.1955 19.7581C31.4338 19.5766 31.6116 19.3214 31.7034 19.0286C31.7953 18.7359 31.7967 18.4204 31.7075 18.1267C31.6182 17.8331 31.4428 17.5762 31.2061 17.3924C30.9693 17.2086 30.6832 17.1072 30.3883 17.1026C30.3405 17.1 30.2926 17.1 30.2448 17.1026L30.242 17.0996Z" fill="currentColor"/>
</svg>
